#!OML:ASF X:\für Bonn\!DataBase\2005_08_11_Bastian_Final\c3d\Bastian.ASF
:FULLY-SPECIFIED
:DEGREES
291
root 11.4885 17.432 -1.93584 183.435 75.8356 -167.253
lowerback 16.997 -0.688227 5.28077
upperback 14.0688 1.09146 2.31612
thorax 5.69115 1.45039 -0.554085
lowerneck -4.87394 -9.90463 -7.08023
upperneck -5.15834 -12.6136 13.456
head 0.617038 -6.18662 4.77985
rclavicle -1.70955e-014 -4.21423e-014
rhumerus -25.5618 19.8735 -86.4517
rradius 28.546
rwrist -8.58209
rhand -18.4301 2.15783
rfingers 7.12502
rthumb 7.85527 -27.6762
lclavicle -1.70955e-014 -4.21423e-014
lhumerus -12.7966 -19.9938 87.678
lradius 35.8805
lwrist 20.1463
lhand -14.2146 -10.7568
lfingers 7.12502
lthumb 11.9222 18.8837
rfemur 3.80118 -0.00617198 29.3799
rtibia 28.4003
rfoot -17.2577 -10.8269
rtoes 4.03849
lfemur -15.4188 -2.82428 -14.514
ltibia 55.2521
lfoot -9.92697 -6.73723
ltoes -20.2484
292
root 11.5669 17.4314 -1.93211 183.468 75.8317 -167.169
lowerback 16.8318 -0.625076 5.22459
upperback 13.9741 1.1392 2.25704
thorax 5.67152 1.4625 -0.592014
lowerneck -4.80924 -9.86868 -7.18762
upperneck -4.93308 -12.5872 13.4939
head 0.679668 -6.17029 4.80491
rclavicle 1.03368e-014 1.27222e-014
rhumerus -25.5657 19.4353 -86.4971
rradius 28.5007
rwrist -8.63766
rhand -18.5251 2.04819
rfingers 7.12502
rthumb 7.76353 -27.7893
lclavicle 1.03368e-014 1.27222e-014
lhumerus -13.1825 -19.5165 87.7915
lradius 34.8222
lwrist 20.2821
lhand -14.264 -10.4102
lfingers 7.12502
lthumb 11.8745 19.2331
rfemur 4.38917 -0.0567151 29.4858
rtibia 27.9134
rfoot -17.3127 -10.8137
rtoes 4.29036
lfemur -15.9797 -2.56055 -14.5401
ltibia 55.0171
lfoot -9.8642 -6.69593
ltoes -20.0306
293
root 11.6458 17.4308 -1.92873 183.259 75.8625 -167.336
lowerback 16.6905 -0.549922 5.11453
upperback 13.8665 1.19721 2.16794
thorax 5.6244 1.47544 -0.634048
lowerneck -4.74423 -9.82647 -7.23876
upperneck -4.68482 -12.5574 13.4735
head 0.740539 -6.15292 4.80409
rclavicle -7.95139e-014 -3.81667e-014
rhumerus -25.5743 18.9645 -86.572
rradius 28.4128
rwrist -8.6373
rhand -18.5941 1.94969
rfingers 7.12502
rthumb 7.69691 -27.8902
lclavicle -7.95139e-014 -3.81667e-014
lhumerus -13.6184 -18.971 87.8827
lradius 33.7836
lwrist 20.4187
lhand -14.2572 -10.0057
lfingers 7.12502
lthumb 11.8811 19.6372
rfemur 4.99391 -1.42324e-005 29.5405
rtibia 27.4051
rfoot -17.3516 -10.8654
rtoes 4.55346
lfemur -16.5025 -2.25997 -14.6426
ltibia 54.6738
lfoot -9.88253 -6.66559
ltoes -19.7966
294
root 11.7269 17.4322 -1.92655 183.205 75.8771 -167.338
lowerback 16.5599 -0.489878 5.04751
upperback 13.7497 1.24128 2.091
thorax 5.56207 1.48367 -0.685846
lowerneck -4.62229 -9.77593 -7.27225
upperneck -4.48304 -12.5153 13.439
head 0.77519 -6.13281 4.80161
rclavicle -1.86858e-014 -2.8625e-014
rhumerus -25.6554 18.6643 -86.7044
rradius 28.3999
rwrist -8.71952
rhand -18.6829 1.76311
rfingers 7.12502
rthumb 7.61125 -28.0799
lclavicle -1.86858e-014 -2.8625e-014
lhumerus -14.0802 -18.3586 87.9595
lradius 32.7038
lwrist 20.4969
lhand -14.2061 -9.60573
lfingers 7.12502
lthumb 11.9303 20.0343
rfemur 5.61836 -0.0238508 29.6213
rtibia 26.8736
rfoot -17.3601 -10.8879
rtoes 4.70778
lfemur -17.0114 -1.96705 -14.6965
ltibia 54.2393
lfoot -9.94181 -6.68399
ltoes -19.4109
